<svg width="41" height="58" viewBox="0 0 41 58" fill="none" xmlns="http://www.w3.org/2000/svg">
<path d="M30.1713 9.5C32.6566 9.5 34.6713 7.48528 34.6713 5C34.6713 2.51472 32.6566 0.5 30.1713 0.5V9.5ZM5 21.3567L0.507115 21.1038L0.5 21.2302V21.3567H5ZM30.1713 41.2414L33.9518 43.6823L30.1713 41.2414ZM30.1713 0.5C19.6012 0.5 12.2464 3.48981 7.43417 7.77206C2.69885 11.9859 0.726948 17.1992 0.507115 21.1038L9.49288 21.6097C9.58002 20.062 10.4936 17.097 13.4171 14.4955C16.2637 11.9624 21.3411 9.5 30.1713 9.5V0.5ZM0.5 21.3567V31.2136H9.5V21.3567H0.5ZM1.03994 36.1957C1.81166 39.5417 2.89536 43.2322 4.38031 46.5254C5.81382 49.7045 7.87177 53.0871 10.8933 55.1589C12.4805 56.2472 14.3696 56.9956 16.5156 57.0911C18.6517 57.1862 20.7331 56.6208 22.6972 55.5694C26.4809 53.5441 30.1718 49.5368 33.9518 43.6823L26.3908 38.8005C22.8888 44.2244 20.2125 46.6912 18.4498 47.6347C17.6407 48.0678 17.1541 48.1106 16.9157 48.1C16.6871 48.0899 16.395 48.0188 15.9828 47.7361C15.0053 47.0659 13.791 45.5009 12.5848 42.8259C11.43 40.2649 10.5066 37.1947 9.80972 34.1731L1.03994 36.1957ZM33.9518 43.6823C37.8135 37.7012 40.0718 32.9625 40.5106 29.2851C40.7424 27.3424 40.5342 25.1101 39.1342 23.2183C37.7106 21.2945 35.6698 20.5488 33.9958 20.3092C30.9362 19.8714 27.3916 20.8595 24.646 21.8425C21.6807 22.9041 18.7028 24.3217 16.4228 25.5081L20.5772 33.4919C22.6629 32.4066 25.2429 31.1882 27.6796 30.3158C30.3362 29.3647 32.0377 29.1207 32.7207 29.2185C32.9179 29.2467 32.3724 29.2108 31.8996 28.5719C31.4505 27.965 31.6487 27.5929 31.574 28.2188C31.3998 29.6786 30.1934 32.9109 26.3908 38.8005L33.9518 43.6823ZM0.5 31.2136C0.5 32.8267 0.649974 34.5049 1.03994 36.1957L9.80972 34.1731C9.59898 33.2593 9.5 32.2735 9.5 31.2136H0.5Z" fill="#2CA6A4"/>
</svg>
